<?xml version="1.0" encoding="UTF-8" standalone="no"?>
<svg width="600px" height="340px" viewBox="0 0 600 340" version="1.1" xmlns="http://www.w3.org/2000/svg" xmlns:xlink="http://www.w3.org/1999/xlink">
    <!-- Generator: Sketch 46.2 (44496) - http://www.bohemiancoding.com/sketch -->
    <title>Group</title>
    <desc>Created with Sketch.</desc>
    <defs></defs>
    <g id="Page-1" stroke="none" stroke-width="1" fill="none" fill-rule="evenodd">
        <g id="Group">
            <rect id="Rectangle-28" fill="#D8D8D8" x="0" y="0" width="600" height="340"></rect>
            <g id="Group-11" transform="translate(279.000000, 153.000000)" fill="#FFFFFF">
                <path d="M14.3571599,10.571403 C14.3571599,12.9374773 12.4375147,14.8571224 10.0714405,14.8571224 C7.70536624,14.8571224 5.7857211,12.9374773 5.7857211,10.571403 C5.7857211,8.20532878 7.70536624,6.28568363 10.0714405,6.28568363 C12.4375147,6.28568363 14.3571599,8.20532878 14.3571599,10.571403 Z M37.21433,19.1428418 L37.21433,29.1428537 L5.7857211,29.1428537 L5.7857211,24.8571343 L12.9285868,17.7142687 L16.5000196,21.2857015 L27.9286046,9.85711646 L37.21433,19.1428418 Z M39.3571897,3.42853737 L3.6428614,3.42853737 C3.26339666,3.42853737 2.92857483,3.7633592 2.92857483,4.14282393 L2.92857483,31.2857134 C2.92857483,31.6651782 3.26339666,32 3.6428614,32 L39.3571897,32 C39.7366544,32 40.0714763,31.6651782 40.0714763,31.2857134 L40.0714763,4.14282393 C40.0714763,3.7633592 39.7366544,3.42853737 39.3571897,3.42853737 Z M42.9286225,4.14282393 L42.9286225,31.2857134 C42.9286225,33.2500015 41.3214777,34.8571463 39.3571897,34.8571463 L3.6428614,34.8571463 C1.67857334,34.8571463 0.0714285714,33.2500015 0.0714285714,31.2857134 L0.0714285714,4.14282393 C0.0714285714,2.17853588 1.67857334,0.571391106 3.6428614,0.571391106 L39.3571897,0.571391106 C41.3214777,0.571391106 42.9286225,2.17853588 42.9286225,4.14282393 Z" id=""></path>
            </g>
        </g>
    </g>
</svg>